# xmcd
#
# Track frame offsets: 
#        150
#        18263
#        35076
#        53269
#        69494
#        90614
#        109795
#        138306
#        152335
#
# Disc length: 2255 seconds
#
# Revision: 0
# Processed by: cddbd v1.5.2PL0 Copyright (c) Steve Scherf et al.
# Submitted via: ExactAudioCopy v1.0b4
#
DISCID=6508cd09
DTITLE=Phyllis Hopkins Electric Trio - Phyllis Hopkins Electric Trio
DYEAR=2014
DGENRE=Blues
TTITLE0=Throw Me A Line (Revamp)
TTITLE1=The Low Down
TTITLE2=Good Or Bad
TTITLE3=Jump
TTITLE4=Millions
TTITLE5=Three Days In Paris
TTITLE6=Just Chillin'
TTITLE7=Captain
TTITLE8=Celebrate
EXTD=
EXTT0=
EXTT1=
EXTT2=
EXTT3=
EXTT4=
EXTT5=
EXTT6=
EXTT7=
EXTT8=
PLAYORDER=
